<?xml version="1.0" encoding="UTF-8" standalone="no"?>
<!-- Created with Inkscape (http://www.inkscape.org/) -->

<svg
   xmlns:dc="http://purl.org/dc/elements/1.1/"
   xmlns:cc="http://creativecommons.org/ns#"
   xmlns:rdf="http://www.w3.org/1999/02/22-rdf-syntax-ns#"
   xmlns:svg="http://www.w3.org/2000/svg"
   xmlns="http://www.w3.org/2000/svg"
   xmlns:sodipodi="http://sodipodi.sourceforge.net/DTD/sodipodi-0.dtd"
   xmlns:inkscape="http://www.inkscape.org/namespaces/inkscape"
   width="707.09998"
   height="200"
   viewBox="0 0 707.09998 200"
   version="1.1"
   id="svg205"
   sodipodi:docname="logo.svg"
   inkscape:version="0.92.3 (2405546, 2018-03-11)">
  <defs
     id="defs199" />
  <sodipodi:namedview
     id="base"
     pagecolor="#ffffff"
     bordercolor="#666666"
     borderopacity="1.0"
     inkscape:pageopacity="0.0"
     inkscape:pageshadow="2"
     inkscape:zoom="0.98994949"
     inkscape:cx="286.0827"
     inkscape:cy="25.250608"
     inkscape:document-units="px"
     inkscape:current-layer="g517"
     showgrid="false"
     inkscape:window-width="1366"
     inkscape:window-height="715"
     inkscape:window-x="-8"
     inkscape:window-y="-8"
     inkscape:window-maximized="1"
     units="px"
     fit-margin-top="0"
     fit-margin-left="0"
     fit-margin-right="0"
     fit-margin-bottom="0" />
  <metadata
     id="metadata202">
    <rdf:RDF>
      <cc:Work
         rdf:about="">
        <dc:format>image/svg+xml</dc:format>
        <dc:type
           rdf:resource="http://purl.org/dc/dcmitype/StillImage" />
        <dc:title />
      </cc:Work>
    </rdf:RDF>
  </metadata>
  <g
     inkscape:label="Layer 1"
     inkscape:groupmode="layer"
     id="layer1"
     transform="translate(-1.2302262,38.198491)">
    <flowRoot
       xml:space="preserve"
       id="flowRoot387"
       style="font-style:normal;font-weight:normal;font-size:40px;line-height:1.25;font-family:sans-serif;letter-spacing:0px;word-spacing:0px;fill:#000000;fill-opacity:1;stroke:none"
       transform="scale(0.26458333)"><flowRegion
         id="flowRegion389"><rect
           id="rect391"
           width="737.14288"
           height="545.71429"
           x="57.142857"
           y="188.23398" /></flowRegion><flowPara
         id="flowPara393" /></flowRoot>    <text
       xml:space="preserve"
       style="font-style:normal;font-variant:normal;font-weight:bold;font-stretch:normal;font-size:181.48262024px;line-height:1.25;font-family:sans-serif;-inkscape-font-specification:'sans-serif Bold';letter-spacing:0px;word-spacing:0px;fill:#000000;fill-opacity:1;stroke:none;stroke-width:1.89044392"
       x="0.27704081"
       y="109.17709"
       id="text397"
       transform="scale(0.69024667,1.4487574)"><tspan
         sodipodi:role="line"
         id="tspan395"
         x="0.27704081"
         y="109.17709"
         style="font-style:normal;font-variant:normal;font-weight:bold;font-stretch:normal;font-size:181.48262024px;font-family:sans-serif;-inkscape-font-specification:'sans-serif Bold';stroke-width:1.89044392">AUT  <tspan
   style="fill:#ff0000;stroke-width:1.89044392"
   id="tspan399" /></tspan></text>
    <g
       id="g517"
       transform="matrix(3.3534649,0,0,3.3479279,-236.92647,209.94953)">
      <g
         id="g230"
         transform="matrix(0.12906473,0,0,0.16529347,156.3663,-73.400068)">
        <g
           id="g168">
	<path
   id="path154"
   d="m 175.434,86.469 c -50.363,0 -91.336,40.973 -91.336,91.336 0,20.633 6.758,40.113 19.545,56.337 2.514,3.19 5.255,6.371 7.905,9.447 7.995,9.277 16.261,18.871 19.23,29.764 0.344,1.266 0.445,4.478 0.405,6.25 -0.077,3.219 1.117,6.257 3.36,8.554 2.243,2.297 5.252,3.563 8.472,3.563 h 64.325 c 3.22,0 6.229,-1.265 8.473,-3.563 2.243,-2.297 3.436,-5.334 3.361,-8.55 -0.034,-1.523 0.073,-4.228 0.417,-5.469 3.01,-10.867 12.226,-21.695 20.357,-31.248 2.579,-3.03 5.015,-5.892 7.256,-8.732 12.792,-16.226 19.554,-35.712 19.554,-56.353 -10e-4,-50.363 -40.969,-91.336 -91.324,-91.336 z"
   inkscape:connector-curvature="0" />

	<path
   id="path156"
   d="m 174.829,69.819 c 8.284,0 15,-6.716 15,-15 V 15.136 c 0,-8.284 -6.716,-15 -15,-15 -8.284,0 -15,6.716 -15,15 v 39.683 c 0,8.284 6.716,15 15,15 z"
   inkscape:connector-curvature="0" />

	<path
   id="path158"
   d="M 303.152,48.326 C 297.431,42.331 287.936,42.11 281.945,47.83 l -29.357,28.017 c -5.993,5.72 -6.216,15.214 -0.496,21.207 2.947,3.089 6.898,4.645 10.854,4.645 3.722,0 7.449,-1.376 10.353,-4.148 l 29.357,-28.017 c 5.993,-5.721 6.216,-15.216 0.496,-21.208 z"
   inkscape:connector-curvature="0" />

	<path
   id="path160"
   d="m 335.856,146.719 c -0.009,0 -0.017,0 -0.025,0 l -37.79,-0.002 c -8.284,0.014 -14.989,6.741 -14.976,15.025 0.014,8.275 6.727,14.976 14.999,14.976 0.009,0 0.017,0 0.025,0 l 37.79,-0.092 c 8.284,-0.014 14.989,-6.694 14.976,-14.978 -0.013,-8.275 -6.726,-14.929 -14.999,-14.929 z"
   inkscape:connector-curvature="0" />

	<path
   id="path162"
   d="m 97.472,97.054 c 5.72,-5.993 5.498,-15.488 -0.495,-21.208 L 67.621,47.83 c -5.993,-5.72 -15.489,-5.498 -21.207,0.495 -5.72,5.993 -5.498,15.488 0.495,21.208 L 76.265,97.55 c 2.905,2.772 6.632,4.148 10.354,4.148 3.956,0 7.906,-1.556 10.853,-4.644 z"
   inkscape:connector-curvature="0" />

	<path
   id="path164"
   d="m 52.812,146.718 -37.788,0.002 c -0.008,0 -0.016,0 -0.024,0 -8.273,0 -14.986,6.638 -15,14.914 -0.013,8.284 6.692,15.011 14.976,15.025 l 37.788,0.061 c 0.008,0 0.016,0 0.024,0 8.272,0 14.986,-6.701 15,-14.976 0.013,-8.285 -6.692,-15.013 -14.976,-15.026 z"
   inkscape:connector-curvature="0" />

	<path
   id="path166"
   d="m 207.829,312.719 h -65 c -6.065,0 -11,4.935 -11,11 v 16 c 0,6.065 4.935,11 11,11 h 65 c 6.065,0 11,-4.935 11,-11 v -16 c 0,-6.065 -4.934,-11 -11,-11 z"
   inkscape:connector-curvature="0" />

</g>
        <g
           id="g170">
</g>
        <g
           id="g172">
</g>
        <g
           id="g174">
</g>
        <g
           id="g176">
</g>
        <g
           id="g178">
</g>
        <g
           id="g180">
</g>
        <g
           id="g182">
</g>
        <g
           id="g184">
</g>
        <g
           id="g186">
</g>
        <g
           id="g188">
</g>
        <g
           id="g190">
</g>
        <g
           id="g192">
</g>
        <g
           id="g194">
</g>
        <g
           id="g196">
</g>
        <g
           id="g198">
</g>
      </g>
    </g>
    <text
       xml:space="preserve"
       style="font-style:normal;font-variant:normal;font-weight:bold;font-stretch:normal;font-size:138.3293457px;line-height:1.25;font-family:sans-serif;-inkscape-font-specification:'sans-serif Bold';letter-spacing:0px;word-spacing:0px;fill:#000000;fill-opacity:1;stroke:none;stroke-width:1.4409306"
       x="598.29071"
       y="97.265747"
       id="text397-4"
       transform="scale(0.7416798,1.3482907)"><tspan
         sodipodi:role="line"
         id="tspan395-3"
         x="598.29071"
         y="97.265747"
         style="font-style:normal;font-variant:normal;font-weight:bold;font-stretch:normal;font-size:138.3293457px;font-family:sans-serif;-inkscape-font-specification:'sans-serif Bold';stroke-width:1.4409306"><tspan
           style="fill:#ff0000;stroke-width:1.4409306"
           id="tspan399-1">WEB</tspan></tspan></text>
  </g>
</svg>
